<svg id="Capa_1" enable-background="new 0 0 512 512" height="512" viewBox="0 0 512 512" width="512" xmlns="http://www.w3.org/2000/svg"><g><g><g><path d="m306 512h-100c-8.284 0-15-6.716-15-15v-25.791c-14.271-4.305-28.062-10.021-41.204-17.081l-18.247 18.247c-2.812 2.813-6.628 4.394-10.606 4.394s-7.794-1.58-10.606-4.394l-70.71-70.711c-5.858-5.857-5.858-15.355 0-21.213l18.247-18.247c-7.062-13.142-12.778-26.932-17.083-41.204h-25.791c-8.284 0-15-6.716-15-15v-100c0-8.284 6.716-15 15-15h25.791c4.305-14.272 10.021-28.062 17.081-41.204l-18.246-18.246c-5.858-5.857-5.858-15.355 0-21.213l70.71-70.712c2.812-2.813 6.628-4.394 10.606-4.394s7.794 1.58 10.606 4.394l18.248 18.247c13.144-7.06 26.933-12.776 41.204-17.081v-25.791c0-8.284 6.716-15 15-15h100c8.284 0 15 6.716 15 15v25.791c14.271 4.305 28.06 10.021 41.203 17.081l18.248-18.247c2.812-2.813 6.628-4.394 10.606-4.394s7.794 1.58 10.606 4.394l70.71 70.712c5.858 5.857 5.858 15.355 0 21.213l-18.246 18.246c7.06 13.143 12.776 26.932 17.081 41.204h25.792c8.284 0 15 6.716 15 15v100c0 8.284-6.716 15-15 15h-25.791c-4.305 14.272-10.021 28.062-17.082 41.204l18.247 18.247c5.858 5.857 5.858 15.355 0 21.213l-70.71 70.711c-2.812 2.813-6.628 4.394-10.606 4.394s-7.794-1.58-10.606-4.394l-18.247-18.247c-13.143 7.06-26.933 12.776-41.204 17.081v25.791c-.001 8.284-6.717 15-15.001 15z" fill="#828282"/></g><g><path d="m497 191h-25.791c-4.305-14.272-10.021-28.062-17.081-41.204l18.246-18.246c5.858-5.857 5.858-15.355 0-21.213l-70.71-70.712c-2.812-2.813-6.628-4.394-10.606-4.394s-7.794 1.58-10.606 4.394l-18.248 18.247c-13.144-7.06-26.933-12.776-41.204-17.081v-25.791c0-8.284-6.716-15-15-15h-50v512h50c8.284 0 15-6.716 15-15v-25.791c14.271-4.305 28.062-10.021 41.204-17.081l18.247 18.247c2.812 2.813 6.628 4.394 10.606 4.394s7.794-1.58 10.606-4.394l70.71-70.711c5.858-5.857 5.858-15.355 0-21.213l-18.247-18.247c7.061-13.143 12.777-26.932 17.082-41.204h25.792c8.284 0 15-6.716 15-15v-100c0-8.284-6.716-15-15-15z" fill="#5a5a5a"/></g></g><g><path d="m346 111h-30c-8.284 0-15 6.716-15 15v60c0 8.284 6.716 15 15 15h70c8.284 0 15-6.716 15-15v-20c0-30.376-24.624-55-55-55z" fill="#ff6426"/><path d="m166 111c-30.376 0-55 24.624-55 55v20c0 8.284 6.716 15 15 15h190v-90z" fill="#beebfa"/><path d="m256 111h60v90h-60z" fill="#7ed8f7"/><path d="m111 186v160c0 30.327 24.673 55 55 55h180c30.327 0 55-24.673 55-55v-160z" fill="#fff5f5"/><g><path d="m256 186v215h90c30.327 0 55-24.673 55-55v-160z" fill="#ebe1dc"/></g><path d="m226 341h-60c-8.284 0-15-6.716-15-15v-80c0-8.284 6.716-15 15-15h60c8.284 0 15 6.716 15 15v80c0 8.284-6.716 15-15 15z" fill="#ff9f22"/><g fill="#5a5a5a"><path d="m331 271h-35c-8.284 0-15-6.716-15-15s6.716-15 15-15h35c8.284 0 15 6.716 15 15s-6.716 15-15 15z"/><path d="m331 331h-35c-8.284 0-15-6.716-15-15s6.716-15 15-15h35c8.284 0 15 6.716 15 15s-6.716 15-15 15z"/></g></g></g></svg>